<svg width="170" height="37" viewBox="0 0 170 37" fill="none" xmlns="http://www.w3.org/2000/svg">
  <path d="M34.7221 25.3049L25.0418 25.4861C24.7155 25.4861 24.3892 25.6674 24.1716 25.9575C23.1928 27.5165 20.1473 31.8672 17.428 34.9127C16.848 35.4565 15.9053 35.3115 15.5065 34.6226C15.434 34.4776 15.3252 34.3326 15.3252 34.2963C14.7451 32.9548 12.9686 25.1961 12.1709 24.2172C11.1921 23.057 2.78069 20.9542 1.47548 20.5191C0.532825 20.1928 0.279031 18.9601 1.00415 18.2712C3.14325 16.2409 6.58757 13.3767 9.05293 11.7452C9.37926 11.5639 9.59677 11.2013 9.59677 10.8387L9.45178 1.62979C9.45178 0.904668 10.1769 0.360832 10.8657 0.687136C12.9323 1.55728 16.6304 3.87765 18.9508 5.90798C19.2046 6.19802 19.6034 6.30677 19.966 6.19802C21.6338 5.7267 26.3107 4.38523 30.879 4.13144C31.4954 4.09519 32.0029 4.60277 31.9304 5.25538C31.7129 7.43075 31.0965 12.1077 30.0813 15.1895C29.9726 15.5158 30.0088 15.8421 30.2626 16.1321C31.2415 17.4011 33.5619 20.5916 35.5922 23.7821C35.9548 24.471 35.5197 25.3049 34.7221 25.3049Z" fill="white"></path>
  <path d="M23.7365 13.9568C23.7365 15.1532 22.7577 16.1684 21.5612 16.1684C20.3648 16.1684 19.3859 15.1895 19.3859 13.9568C19.3859 12.7603 20.3648 11.7452 21.5612 11.7452C22.7577 11.7452 23.7365 12.7603 23.7365 13.9568ZM34.7221 25.3049L25.0418 25.4861C24.7155 25.4861 24.3891 25.6674 24.1716 25.9575C23.1928 27.5165 20.1473 31.8672 17.428 34.9127C16.848 35.4565 15.9053 35.3115 15.5065 34.6226C15.434 34.4776 15.3252 34.3326 15.3252 34.2963C14.7451 32.9548 12.9686 25.1961 12.1709 24.2172C11.1921 23.057 2.78069 20.9542 1.47548 20.5191C0.532825 20.1928 0.279031 18.9601 1.00415 18.2712C3.14325 16.2409 6.58757 13.3767 9.05293 11.7452C9.37926 11.5639 9.59677 11.2013 9.59677 10.8387L9.45178 1.62979C9.45178 0.904668 10.1769 0.360832 10.8657 0.687136C12.9323 1.55728 16.6304 3.87765 18.9508 5.90798C19.2046 6.19802 19.6034 6.30677 19.966 6.19802C21.6338 5.7267 26.3107 4.38523 30.879 4.13144C31.4954 4.09519 32.0029 4.60277 31.9304 5.25538C31.7129 7.43075 31.0965 12.1077 30.0813 15.1895C29.9726 15.5158 30.0088 15.8421 30.2626 16.1321C31.2415 17.4011 33.5619 20.5916 35.5922 23.7821C35.9548 24.471 35.5197 25.3049 34.7221 25.3049ZM29.0299 7.35823C29.1025 7.10442 28.8487 6.85062 28.5586 6.88691C18.7695 7.90207 9.81434 15.0445 6.91384 17.6186C6.44252 18.0174 6.58757 18.7788 7.16765 18.9964C7.16765 18.9964 13.4036 20.0115 14.8902 21.2805C15.9778 22.2231 17.0293 27.879 17.0293 27.879C17.2468 28.4229 17.9357 28.5316 18.3345 28.1328C26.782 19.4677 28.7036 9.75112 29.0299 7.35823Z" fill="url(#paint0_linear_2_270)"></path>
  <path d="M12.461 30.9245C12.3885 30.5982 12.2797 30.2719 12.1709 29.9093L9.05277 33.2087C8.8352 33.4625 8.72644 33.7888 8.72644 34.1152C8.72644 34.4777 8.87149 34.8041 9.12529 35.0216C9.34281 35.2391 9.66914 35.3479 9.99546 35.3479C10.358 35.3479 10.6844 35.2029 10.9382 34.9491L13.0048 32.7736C12.8236 32.266 12.6423 31.6496 12.461 30.9245Z" fill="url(#paint1_linear_2_270)"></path>
  <path d="M10.757 25.3773C10.5032 25.196 9.99562 25.0148 9.41549 24.7972L1.65675 32.701C1.40296 32.9548 1.29419 33.2811 1.29419 33.6074C1.29419 33.9337 1.40296 34.2963 1.65675 34.5138C1.91054 34.7313 2.23684 34.8764 2.56315 34.8764C2.88945 34.8764 3.21575 34.7676 3.5058 34.5138L11.192 26.6825C11.047 26.1387 10.902 25.6674 10.757 25.3773Z" fill="url(#paint2_linear_2_270)"></path>
  <path d="M3.7596 23.0207L1.18533 25.6312C0.967779 25.885 0.822754 26.2114 0.822754 26.5377C0.822754 26.864 0.931523 27.2266 1.18533 27.4441C1.43913 27.6617 1.76544 27.8067 2.09176 27.8067C2.41807 27.8067 2.78065 27.6617 2.99819 27.4441L6.58766 23.8184C5.57244 23.5646 4.55726 23.2745 3.7596 23.0207Z" fill="url(#paint3_linear_2_270)"></path>
  <path d="M12.461 30.9245C12.3885 30.5982 12.2797 30.2719 12.1709 29.9093L9.05277 33.2087C8.8352 33.4625 8.72644 33.7888 8.72644 34.1152C8.72644 34.4777 8.87149 34.8041 9.12529 35.0216C9.34281 35.2391 9.66914 35.3479 9.99546 35.3479C10.358 35.3479 10.6844 35.2029 10.9382 34.9491L13.0048 32.7736C12.8236 32.266 12.6423 31.6496 12.461 30.9245Z" fill="url(#paint4_linear_2_270)" stroke="url(#paint5_linear_2_270)" stroke-width="1.17121"></path>
  <path d="M3.7596 23.0207L1.18533 25.6312C0.967779 25.885 0.822754 26.2114 0.822754 26.5377C0.822754 26.864 0.931523 27.2266 1.18533 27.4441C1.43913 27.6617 1.76544 27.8067 2.09176 27.8067C2.41807 27.8067 2.78065 27.6617 2.99819 27.4441L6.58766 23.8184C5.57244 23.5646 4.55726 23.2745 3.7596 23.0207Z" stroke="url(#paint6_linear_2_270)" stroke-width="1.17121"></path>
  <path d="M10.757 25.3773C10.5032 25.196 9.99562 25.0148 9.41549 24.7972L1.65675 32.701C1.40296 32.9548 1.29419 33.2811 1.29419 33.6074C1.29419 33.9337 1.40296 34.2963 1.65675 34.5138C1.91054 34.7313 2.23684 34.8764 2.56315 34.8764C2.88945 34.8764 3.21575 34.7676 3.5058 34.5138L11.192 26.6825C11.047 26.1387 10.902 25.6674 10.757 25.3773Z" stroke="url(#paint7_linear_2_270)" stroke-opacity="0.5" stroke-width="1.17121"></path>
  <g filter="url(#filter0_ii_2_270)">
    <path d="M34.7221 25.3049L25.0418 25.4861C24.7155 25.4861 24.3892 25.6674 24.1716 25.9575C23.1928 27.5165 20.1473 31.8672 17.428 34.9127C16.848 35.4565 15.9053 35.3115 15.5065 34.6226C15.434 34.4776 15.3252 34.3326 15.3252 34.2963C14.7451 32.9548 12.9686 25.1961 12.1709 24.2172C11.1921 23.057 2.78069 20.9542 1.47548 20.5191C0.532825 20.1928 0.279031 18.9601 1.00415 18.2712C3.14325 16.2409 6.58757 13.3767 9.05293 11.7452C9.37926 11.5639 9.59677 11.2013 9.59677 10.8388L9.45178 1.62979C9.45178 0.904669 10.1769 0.360832 10.8657 0.687136C12.9323 1.55728 16.6304 3.87765 18.9508 5.90798C19.2046 6.19802 19.6034 6.30677 19.966 6.19802C21.6338 5.7267 26.3107 4.38523 30.879 4.13144C31.4954 4.09519 32.0029 4.60277 31.9304 5.25538C31.7129 7.43075 31.0965 12.1077 30.0813 15.1895C29.9726 15.5158 30.0088 15.8421 30.2626 16.1321C31.2416 17.4011 33.5619 20.5916 35.5922 23.7821C35.9548 24.471 35.5197 25.3049 34.7221 25.3049Z" stroke="url(#paint8_linear_2_270)" stroke-width="1.17121"></path>
  </g>
  <path d="M50.01 15.4229C48.9779 14.4652 47.8427 14.1916 46.5699 14.1916C44.8842 14.1574 43.7834 14.7047 43.7834 15.765C43.8179 16.8595 44.953 17.2699 46.6387 17.441C49.0467 17.6462 52.2116 18.1935 52.1772 21.5455C52.1428 23.974 50.01 25.65 46.6043 25.65C44.4714 25.65 42.3386 25.1711 40.6185 23.2557L42.0634 21.3403C43.3018 22.6742 45.1251 23.2557 46.6731 23.2557C47.9803 23.2557 49.4252 22.7768 49.4596 21.5797C49.494 20.4167 48.3587 19.9721 46.4323 19.7669C43.9554 19.5275 41.1345 18.7407 41.1002 15.8676C41.1002 12.9944 44.093 11.8999 46.5355 11.8999C48.5651 11.8999 50.1132 12.3446 51.5924 13.6443L50.01 15.4229Z" style="paint-order: fill; fill-rule: nonzero; fill: rgb(96, 132, 211);"></path>
  <path d="M57.9564 8.37684C57.9564 10.6343 54.5509 10.6343 54.5509 8.37684C54.5509 6.18774 57.9564 6.18774 57.9564 8.37684ZM54.8946 12.1735V25.2395H57.6467V12.1735H54.8946Z" style="fill: rgb(96, 132, 211);"></path>
  <path d="M65.5591 8.47961V12.2421H69.378V14.6022H65.525V20.7931C65.525 22.1613 66.1438 22.948 67.4169 22.948C67.933 22.948 68.5523 22.777 69.1024 22.5033L69.8935 24.8292C68.9991 25.2397 68.208 25.4107 67.2791 25.4107C64.4237 25.4791 62.8069 23.8715 62.8069 20.8273V14.6364H60.2958V12.2763H62.8069V8.75324L65.5591 8.47961Z" style="fill: rgb(96, 132, 211);"></path>
  <path d="M74.1937 19.7327C74.4342 21.7165 76.0856 23.0163 78.4595 23.0163C79.8007 23.0163 81.4521 22.5032 82.2433 21.6139L84.0325 23.3241C82.6907 24.7949 80.42 25.5474 78.3903 25.5474C74.0905 25.5474 71.3384 22.8111 71.3384 18.6723C71.3384 14.7047 74.1246 11.8999 78.2185 11.8999C82.4497 11.8999 85.3051 14.4652 84.789 19.7669L74.1937 19.7327ZM82.1746 17.441C82.0028 15.3887 80.4892 14.2942 78.2871 14.2942C76.292 14.2942 74.6406 15.3887 74.2278 17.441H82.1746Z" style="fill: rgb(96, 132, 211);"></path>
  <path d="M90.3279 12.1737V26.7788C90.3279 30.0625 89.1239 31.7727 86.1994 31.7727C85.271 31.7727 84.3421 31.5333 83.4478 30.9518L84.4453 28.7969C84.9954 29.0705 85.5806 29.2073 86.1307 29.2073C87.4379 29.1731 87.6443 28.2838 87.6443 26.7788V12.1737H90.3279ZM87.2661 8.34276C87.2661 10.6003 90.6716 10.6003 90.6716 8.34276C90.6716 6.11951 87.2661 6.11951 87.2661 8.34276Z" style="fill: rgb(96, 132, 211);"></path>
  <path d="M104.57 12.2079H107.219C107.219 16.5518 107.219 20.8957 107.219 25.2396H104.604L104.466 23.119C103.606 24.795 101.577 25.5817 99.9597 25.5817C96.1414 25.6159 93.252 23.1532 93.252 18.7066C93.252 14.3627 96.2446 11.9342 100.029 11.9342C101.886 11.9342 103.675 12.7893 104.501 14.2943L104.57 12.2079ZM96.0036 18.7066C96.0036 21.4088 97.93 23.0506 100.269 23.0506C105.911 23.0506 105.911 14.4311 100.269 14.4311C97.896 14.4311 96.0036 16.0387 96.0036 18.7066Z" style="fill: rgb(96, 132, 211);"></path>
  <path d="M113.686 6.76936V14.2259C114.546 12.6867 116.678 11.9 118.295 11.9C122.08 11.9 124.935 14.2601 124.935 18.6724C124.935 22.9822 122.045 25.4449 118.227 25.4449C116.472 25.4449 114.718 24.795 113.686 23.119L113.514 25.1713H110.934V6.70096L113.686 6.76936ZM113.824 18.7066C113.824 21.272 115.716 22.948 118.02 22.948C120.291 22.948 122.148 21.3062 122.148 18.7066C122.148 16.0388 120.291 14.4654 118.02 14.4654C115.75 14.4996 113.824 16.2098 113.824 18.7066Z" style="fill: rgb(96, 132, 211);"></path>
  <path d="M130.577 6.76936V14.2259C131.437 12.6867 133.57 11.9 135.187 11.9C138.971 11.9 141.826 14.2601 141.826 18.6724C141.826 22.9822 138.936 25.4449 135.118 25.4449C133.363 25.4449 131.609 24.795 130.577 23.119L130.405 25.1713H127.825V6.70096L130.577 6.76936ZM130.714 18.7066C130.714 21.272 132.606 22.948 134.912 22.948C137.182 22.948 139.039 21.3062 139.039 18.7066C139.039 16.0388 137.182 14.4654 134.912 14.4654C132.641 14.4996 130.714 16.2098 130.714 18.7066Z" fill="white"></path>
  <path d="M146.779 19.7327C147.02 21.7165 148.672 23.0163 151.045 23.0163C152.387 23.0163 154.038 22.5032 154.829 21.6139L156.618 23.3241C155.276 24.7949 153.006 25.5474 150.976 25.5474C146.676 25.5474 143.924 22.8111 143.924 18.6723C143.924 14.7047 146.711 11.8999 150.804 11.8999C155.036 11.8999 157.891 14.4652 157.375 19.7669L146.779 19.7327ZM154.76 17.441C154.588 15.3887 153.075 14.2942 150.873 14.2942C148.878 14.2942 147.227 15.3887 146.814 17.441H154.76Z" fill="white"></path>
  <path d="M162.742 12.2077L162.913 13.9179C163.876 12.2419 165.356 11.8999 166.766 11.8999C168.039 11.8999 169.277 12.3446 170 12.9944L168.761 15.3545C168.108 14.8415 167.454 14.5678 166.457 14.5678C164.565 14.5678 162.913 15.7308 162.913 18.1251V25.1711H160.161V12.1393L162.742 12.2077Z" fill="white"></path>
  <defs>
    <filter id="filter0_ii_2_270" x="0" y="3.05176e-05" width="36.304" height="36.0642" filterUnits="userSpaceOnUse" color-interpolation-filters="sRGB">
      <feFlood flood-opacity="0" result="BackgroundImageFix"></feFlood>
      <feBlend mode="normal" in="SourceGraphic" in2="BackgroundImageFix" result="shape"></feBlend>
      <feColorMatrix in="SourceAlpha" type="matrix" values="0 0 0 0 0 0 0 0 0 0 0 0 0 0 0 0 0 0 127 0" result="hardAlpha"></feColorMatrix>
      <feOffset dy="0.234242"></feOffset>
      <feGaussianBlur stdDeviation="0.117121"></feGaussianBlur>
      <feComposite in2="hardAlpha" operator="arithmetic" k2="-1" k3="1"></feComposite>
      <feColorMatrix type="matrix" values="0 0 0 0 1 0 0 0 0 1 0 0 0 0 1 0 0 0 0.8 0"></feColorMatrix>
      <feBlend mode="normal" in2="shape" result="effect1_innerShadow_2_270"></feBlend>
      <feColorMatrix in="SourceAlpha" type="matrix" values="0 0 0 0 0 0 0 0 0 0 0 0 0 0 0 0 0 0 127 0" result="hardAlpha"></feColorMatrix>
      <feOffset dy="0.117121"></feOffset>
      <feGaussianBlur stdDeviation="0.117121"></feGaussianBlur>
      <feComposite in2="hardAlpha" operator="arithmetic" k2="-1" k3="1"></feComposite>
      <feColorMatrix type="matrix" values="0 0 0 0 0.441667 0 0 0 0 0.441667 0 0 0 0 0.441667 0 0 0 0.4 0"></feColorMatrix>
      <feBlend mode="normal" in2="effect1_innerShadow_2_270" result="effect2_innerShadow_2_270"></feBlend>
    </filter>
    <linearGradient id="paint0_linear_2_270" x1="30.4715" y1="5.05868" x2="9.10206" y2="26.4281" gradientUnits="userSpaceOnUse">
      <stop offset="0.1745" stop-color="#52BFCA"></stop>
      <stop offset="0.9163" stop-color="#7238DF"></stop>
    </linearGradient>
    <linearGradient id="paint1_linear_2_270" x1="5.92679" y1="37.9634" x2="14.3054" y2="29.7275" gradientUnits="userSpaceOnUse">
      <stop offset="0.1875" stop-color="#25E2EA"></stop>
      <stop offset="1" stop-color="#19A6D1"></stop>
    </linearGradient>
    <linearGradient id="paint2_linear_2_270" x1="-5.25144" y1="41.2055" x2="13.4401" y2="22.8321" gradientUnits="userSpaceOnUse">
      <stop stop-color="#A443FD"></stop>
      <stop offset="1" stop-color="#A959F3"></stop>
    </linearGradient>
    <linearGradient id="paint3_linear_2_270" x1="-2.24592" y1="30.7924" x2="7.01847" y2="21.6858" gradientUnits="userSpaceOnUse">
      <stop offset="0.3958" stop-color="#E55EC4"></stop>
      <stop offset="1" stop-color="#8225D0"></stop>
    </linearGradient>
    <linearGradient id="paint4_linear_2_270" x1="5.92679" y1="37.9634" x2="14.3054" y2="29.7275" gradientUnits="userSpaceOnUse">
      <stop offset="0.1875" stop-color="#25E2EA"></stop>
      <stop offset="1" stop-color="#19A6D1"></stop>
    </linearGradient>
    <linearGradient id="paint5_linear_2_270" x1="8.72644" y1="35.6107" x2="11.9165" y2="32.302" gradientUnits="userSpaceOnUse">
      <stop></stop>
      <stop offset="0.0001" stop-color="#E4FCFF"></stop>
      <stop offset="1" stop-color="#E4FCFF" stop-opacity="0"></stop>
    </linearGradient>
    <linearGradient id="paint6_linear_2_270" x1="0.822754" y1="27.6757" x2="5.00641" y2="23.4008" gradientUnits="userSpaceOnUse">
      <stop stop-color="#FFF5FE"></stop>
      <stop offset="0.7693" stop-color="#FFF5FE" stop-opacity="0"></stop>
    </linearGradient>
    <linearGradient id="paint7_linear_2_270" x1="1.69777" y1="34.5566" x2="10.6868" y2="25.3626" gradientUnits="userSpaceOnUse">
      <stop stop-color="#F6EDFE"></stop>
      <stop offset="0.8509" stop-color="#A851F8" stop-opacity="0"></stop>
    </linearGradient>
    <linearGradient id="paint8_linear_2_270" x1="32.1493" y1="3.90018" x2="8.9008" y2="28.2906" gradientUnits="userSpaceOnUse">
      <stop offset="0.0092" stop-color="#2D9FAB"></stop>
      <stop offset="0.0885" stop-color="#2D9FAB" stop-opacity="0.823892"></stop>
      <stop offset="0.1719" stop-color="#2D9FAB" stop-opacity="0.8"></stop>
      <stop offset="0.3021" stop-color="#2D9FAB" stop-opacity="0.8"></stop>
      <stop offset="1" stop-color="white" stop-opacity="0.5"></stop>
    </linearGradient>
  </defs>
</svg>