<svg width="117" height="20" fill="none" xmlns="http://www.w3.org/2000/svg">
    <path fill="#ee6922" d="M.07 0h20v20h-20z" />
    <path
        d="M17.57 8.106h-5.728l-1.77-5.453-1.774 5.453L2.57 8.1l4.639 3.373-1.775 5.446 4.639-3.369 4.633 3.369-1.77-5.446 4.634-3.368Z"
        fill="#fff" />
    <path d="m13.335 12.705-.397-1.233-2.864 2.08 3.261-.847ZM24.07 0h20v20h-20z" fill="#ee6922" />
    <path
        d="M41.57 8.106h-5.728l-1.77-5.453-1.774 5.453L26.57 8.1l4.639 3.373-1.775 5.446 4.639-3.369 4.633 3.369-1.77-5.446 4.634-3.368Z"
        fill="#fff" />
    <path d="m37.336 12.705-.398-1.233-2.864 2.08 3.262-.847ZM48.07 0h20v20h-20z" fill="#ee6922" />
    <path
        d="M65.57 8.106h-5.728l-1.77-5.453-1.774 5.453L50.57 8.1l4.639 3.373-1.775 5.446 4.639-3.369 4.633 3.369-1.77-5.446 4.634-3.368Z"
        fill="#fff" />
    <path d="m61.336 12.705-.398-1.233-2.864 2.08 3.262-.847ZM72.07 0h20v20h-20z" fill="#ee6922" />
    <path
        d="M89.57 8.106h-5.728l-1.77-5.453-1.774 5.453L74.57 8.1l4.639 3.373-1.775 5.446 4.639-3.369 4.633 3.369-1.77-5.446 4.634-3.368Z"
        fill="#fff" />
    <path d="m85.335 12.705-.397-1.233-2.864 2.08 3.261-.847ZM96.07 0h20v20h-20z" fill="#ee6922" />
    <path
        d="M113.57 8.106h-5.728l-1.769-5.453-1.775 5.453L98.57 8.1l4.639 3.373-1.775 5.446 4.639-3.369 4.633 3.369-1.769-5.446 4.633-3.368Z"
        fill="#fff" />
    <path d="m109.336 12.705-.398-1.233-2.864 2.08 3.262-.847Z" fill="#ee6922" />
</svg>