<svg width="134" height="33" fill="none" xmlns="http://www.w3.org/2000/svg">
    <g clip-path="url(#a)">
        <mask id="b" style="mask-type:luminance" maskUnits="userSpaceOnUse" x="0" y="0" width="134"
            height="33">
            <path d="M133.05 0H0v32.675h133.05V0Z" fill="#fff" />
        </mask>
        <g mask="url(#b)">
            <path
                d="M34.963 11.582h13.471v2.511h-5.296v14.13h-2.915v-14.13h-5.276v-2.511h.016Zm12.897 4.592h2.49V18.5h.047c.083-.331.233-.647.455-.952.223-.306.492-.601.813-.845a4.3 4.3 0 0 1 1.056-.62 3.18 3.18 0 0 1 1.186-.234c.306 0 .528.01.647.026.12.01.233.036.363.047v2.563c-.187-.037-.378-.057-.575-.083a4.39 4.39 0 0 0-.575-.037c-.445 0-.87.094-1.268.27-.399.176-.74.445-1.036.787a3.964 3.964 0 0 0-.704 1.294c-.176.518-.259 1.103-.259 1.776v5.731h-2.656V16.185h.01l.006-.01Zm19.26 12.053h-2.61V26.55h-.046c-.326.611-.808 1.092-1.455 1.455-.647.362-1.305.554-1.973.554-1.584 0-2.738-.388-3.443-1.175-.704-.787-1.056-1.973-1.056-3.557V16.18h2.656v7.388c0 1.056.202 1.807.611 2.242.399.435.974.657 1.704.657.564 0 1.02-.083 1.398-.259.377-.176.683-.398.906-.693.233-.28.398-.632.507-1.036a5.19 5.19 0 0 0 .15-1.305v-6.99h2.656v12.038l-.005.005Zm4.52-3.862c.083.777.378 1.315.88 1.631.518.306 1.129.471 1.843.471.249 0 .528-.026.844-.057a3.68 3.68 0 0 0 .89-.222c.28-.104.508-.27.694-.482.177-.212.26-.481.249-.823a1.119 1.119 0 0 0-.378-.834c-.233-.222-.528-.388-.89-.528a8.863 8.863 0 0 0-1.243-.341c-.471-.094-.942-.202-1.424-.306a13.911 13.911 0 0 1-1.434-.399 4.216 4.216 0 0 1-1.232-.636 2.836 2.836 0 0 1-.87-1.01c-.223-.41-.326-.916-.326-1.527 0-.658.165-1.196.481-1.647a3.64 3.64 0 0 1 1.212-1.066 5.695 5.695 0 0 1 1.63-.575 10.19 10.19 0 0 1 1.714-.166c.622 0 1.222.073 1.787.202.564.13 1.082.342 1.537.647.456.296.834.684 1.14 1.15.305.47.491 1.046.574 1.713h-2.77c-.13-.636-.409-1.066-.87-1.278-.455-.223-.983-.332-1.574-.332-.186 0-.409.01-.668.047a3.758 3.758 0 0 0-.73.176 1.589 1.589 0 0 0-.574.378.925.925 0 0 0-.233.647c0 .331.119.585.341.787.223.202.518.363.88.507.363.13.777.249 1.243.342.471.093.953.202 1.445.306.481.103.952.248 1.418.398.472.15.88.363 1.243.632.362.27.657.6.88 1 .223.398.342.905.342 1.49 0 .715-.166 1.315-.492 1.823-.331.492-.75.906-1.269 1.211a6.073 6.073 0 0 1-1.74.684 8.812 8.812 0 0 1-1.889.212 7.98 7.98 0 0 1-2.112-.259c-.647-.176-1.212-.435-1.678-.776a3.804 3.804 0 0 1-1.113-1.305c-.27-.518-.409-1.14-.435-1.854h2.677v-.031Zm8.76-8.185h2.009v-3.62h2.656v3.62h2.397v1.983h-2.397v6.435c0 .28.01.518.036.73.021.202.083.378.166.518s.212.248.388.316c.176.072.399.103.704.103.187 0 .378 0 .565-.01.186-.01.378-.036.564-.083v2.055c-.295.037-.585.058-.86.094-.279.036-.564.046-.859.046-.704 0-1.268-.072-1.693-.202-.424-.129-.766-.33-1-.585-.248-.258-.398-.574-.491-.963a7.084 7.084 0 0 1-.15-1.325v-7.104h-2.009V16.18H80.4Zm8.936 0h2.517v1.63h.046c.378-.704.89-1.195 1.564-1.501a5.148 5.148 0 0 1 2.174-.456c.953 0 1.776.166 2.48.508a4.858 4.858 0 0 1 1.76 1.372c.472.585.814 1.268 1.047 2.045.233.777.352 1.61.352 2.49 0 .813-.104 1.6-.316 2.35a6.255 6.255 0 0 1-.953 2.02 4.707 4.707 0 0 1-1.62 1.398c-.658.352-1.419.528-2.315.528-.388 0-.776-.036-1.165-.104a4.966 4.966 0 0 1-1.113-.341 3.943 3.943 0 0 1-.989-.6 3.665 3.665 0 0 1-.76-.845h-.047v6.011h-2.656v-16.5l-.006-.005Zm9.278 6.037c0-.539-.072-1.067-.212-1.585a4.276 4.276 0 0 0-.632-1.362 3.28 3.28 0 0 0-1.045-.952 2.96 2.96 0 0 0-1.445-.363c-1.118 0-1.962.389-2.526 1.165-.565.777-.844 1.807-.844 3.102 0 .61.072 1.175.222 1.693.15.518.363.963.668 1.34.295.379.647.669 1.056.88.41.223.89.332 1.434.332.611 0 1.114-.13 1.538-.378a3.242 3.242 0 0 0 1.036-.963c.269-.398.47-.844.585-1.351.103-.508.165-1.02.165-1.548v-.01Zm4.686-10.63h2.656v2.511H103.3v-2.51Zm0 4.593h2.656v12.053H103.3V16.18Zm5.027-4.593h2.656v16.64h-2.656V11.582v.005Zm10.795 16.972c-.963 0-1.822-.166-2.573-.482a5.65 5.65 0 0 1-1.916-1.315 5.699 5.699 0 0 1-1.185-2.009 7.785 7.785 0 0 1-.409-2.562c0-.932.14-1.76.409-2.537a5.7 5.7 0 0 1 1.185-2.01c.518-.563 1.165-.998 1.916-1.314.751-.316 1.61-.482 2.573-.482.963 0 1.823.166 2.573.482a5.64 5.64 0 0 1 1.916 1.315 5.687 5.687 0 0 1 1.186 2.009c.269.776.409 1.62.409 2.537 0 .916-.14 1.786-.409 2.563a5.686 5.686 0 0 1-1.186 2.008c-.518.565-1.165 1-1.916 1.315-.75.316-1.61.482-2.573.482Zm0-2.102c.585 0 1.103-.13 1.538-.378a3.336 3.336 0 0 0 1.072-.974c.279-.398.481-.859.621-1.361.129-.508.202-1.02.202-1.548s-.073-1.02-.202-1.538a4.05 4.05 0 0 0-.621-1.362 3.256 3.256 0 0 0-1.072-.963c-.435-.248-.953-.377-1.538-.377-.585 0-1.102.129-1.537.377a3.355 3.355 0 0 0-1.067.963c-.28.4-.481.844-.621 1.362a6.245 6.245 0 0 0-.202 1.538c0 .518.072 1.046.202 1.548.129.507.341.963.621 1.361.28.4.632.73 1.067.974.435.259.952.378 1.537.378Zm6.86-10.277h2.009v-3.62h2.656v3.62h2.397v1.983h-2.397v6.435c0 .28.011.518.037.73.02.202.082.378.165.518s.213.248.389.316c.176.072.398.103.704.103.186 0 .378 0 .564-.01.186-.01.378-.036.564-.083v2.055c-.295.037-.59.058-.859.094-.28.036-.564.046-.86.046-.704 0-1.268-.072-1.693-.202-.424-.129-.766-.33-.999-.585-.248-.258-.398-.574-.492-.963a7.126 7.126 0 0 1-.15-1.325v-7.104h-2.009V16.18h-.026Z"
                fill="#181818" />
            <path
                d="M31.862 11.582H19.695L15.936 0l-3.769 11.582L0 11.572l9.853 7.165-3.77 11.567 9.853-7.156 9.843 7.156-3.76-11.567 9.843-7.155Z"
                fill="#05B37A" />
            <path d="m22.869 21.352-.844-2.62-6.084 4.416 6.928-1.796Z" fill="#005129" />
        </g>
    </g>
    <defs>
        <clipPath id="a">
            <path fill="#fff" d="M0 0h133.071v32.675H0z" />
        </clipPath>
    </defs>
</svg>