<?xml version="1.0" encoding="UTF-8"?>
<!DOCTYPE svg PUBLIC "-//W3C//DTD SVG 1.1//EN" "http://www.w3.org/Graphics/SVG/1.1/DTD/svg11.dtd">
<svg xmlns="http://www.w3.org/2000/svg" version="1.1" width="512px" height="512px" style="shape-rendering:geometricPrecision; text-rendering:geometricPrecision; image-rendering:optimizeQuality; fill-rule:evenodd; clip-rule:evenodd" xmlns:xlink="http://www.w3.org/1999/xlink">
<g><path style="opacity:0.958" fill="#000000" d="M 69.5,-0.5 C 131.833,-0.5 194.167,-0.5 256.5,-0.5C 295.502,38.6694 333.669,78.6694 371,119.5C 371.167,153.172 371.667,186.838 372.5,220.5C 427.821,234.987 464.654,269.321 483,323.5C 497.358,381.922 483.191,432.088 440.5,474C 416.772,494.364 389.438,506.864 358.5,511.5C 347.167,511.5 335.833,511.5 324.5,511.5C 277.364,504.605 241.031,481.105 215.5,441C 167.167,440.667 118.833,440.333 70.5,440C 44.4485,434.949 28.6152,419.449 23,393.5C 22.3333,277.833 22.3333,162.167 23,46.5C 28.7076,20.9598 44.2076,5.29313 69.5,-0.5 Z M 73.5,21.5 C 129.167,21.5 184.833,21.5 240.5,21.5C 240.078,47.1973 240.578,72.864 242,98.5C 247.851,119.03 261.351,131.196 282.5,135C 304.831,135.5 327.164,135.667 349.5,135.5C 349.5,162.833 349.5,190.167 349.5,217.5C 309.673,216.274 274.673,228.44 244.5,254C 197.083,254.01 149.75,254.676 102.5,256C 97.017,260.755 96.1837,266.255 100,272.5C 101.579,274.041 103.413,275.208 105.5,276C 144.833,276.333 184.167,276.667 223.5,277C 216.114,286.26 210.114,296.427 205.5,307.5C 172.505,308.333 139.505,308.833 106.5,309C 98.6211,311.948 96.1211,317.448 99,325.5C 100.543,327.378 102.376,328.878 104.5,330C 135.498,330.5 166.498,330.667 197.5,330.5C 192.839,356.025 193.673,381.359 200,406.5C 201.113,410.508 202.613,414.341 204.5,418C 161.833,418.667 119.167,418.667 76.5,418C 59.7929,415.248 49.2929,405.748 45,389.5C 44.3333,276.5 44.3333,163.5 45,50.5C 48.6813,34.9862 58.1813,25.3195 73.5,21.5 Z M 263.5,39.5 C 286.967,63.8017 310.3,88.3017 333.5,113C 317.833,113.667 302.167,113.667 286.5,113C 274.963,111.128 267.463,104.628 264,93.5C 263.5,75.5031 263.333,57.5031 263.5,39.5 Z M 326.5,240.5 C 379.43,237.048 420.263,257.382 449,301.5C 474.474,350.068 471.474,396.734 440,441.5C 404.805,482.787 360.638,497.287 307.5,485C 257.387,468.553 227.554,434.386 218,382.5C 212.987,336.528 227.82,298.361 262.5,268C 281.424,253.086 302.757,243.919 326.5,240.5 Z"/></g>
<g><path style="opacity:0.924" fill="#000000" d="M 106.5,200.5 C 143.835,200.333 181.168,200.5 218.5,201C 226.374,203.24 229.208,208.407 227,216.5C 225.132,220.521 221.965,222.687 217.5,223C 181.167,223.667 144.833,223.667 108.5,223C 98.1908,220.437 95.3575,214.27 100,204.5C 102.095,202.875 104.261,201.542 106.5,200.5 Z"/></g>
<g><path style="opacity:0.953" fill="#000000" d="M 337.5,282.5 C 344.128,281.231 348.961,283.564 352,289.5C 352.333,329.167 352.667,368.833 353,408.5C 367.856,391.979 383.023,375.813 398.5,360C 407.709,357.266 413.042,360.6 414.5,370C 414.506,372.3 414.006,374.466 413,376.5C 391.466,399.033 370.299,421.866 349.5,445C 344.704,448.91 339.704,449.243 334.5,446C 313.333,423.5 292.167,401 271,378.5C 265.052,368.341 267.718,361.674 279,358.5C 280.811,359.078 282.645,359.578 284.5,360C 299.667,375.833 314.833,391.667 330,407.5C 330.333,368.5 330.667,329.5 331,290.5C 332.277,287.062 334.443,284.395 337.5,282.5 Z"/></g>
</svg>
