<?xml version="1.0" standalone="no"?>
<!DOCTYPE svg PUBLIC "-//W3C//DTD SVG 20010904//EN"
 "http://www.w3.org/TR/2001/REC-SVG-20010904/DTD/svg10.dtd">
<svg version="1.0" xmlns="http://www.w3.org/2000/svg"
 width="512.000000pt" height="512.000000pt" viewBox="0 0 512.000000 512.000000"
 preserveAspectRatio="xMidYMid meet">

<g transform="translate(0.000000,512.000000) scale(0.100000,-0.100000)"
fill="#000000" stroke="none">
<path d="M1200 2756 c-526 -111 -859 -617 -751 -1141 111 -539 665 -874 1199
-725 85 24 183 66 237 103 l38 26 25 -51 c87 -175 350 -138 392 55 8 37 10
282 8 822 -3 766 -3 770 -25 810 -11 22 -32 50 -45 62 -57 54 -167 69 -237 34
-44 -23 -98 -81 -107 -115 -5 -23 -6 -23 -112 30 -149 75 -233 96 -412 100
-97 2 -166 -1 -210 -10z m325 -428 c22 -5 67 -23 101 -40 262 -128 369 -460
232 -722 -41 -78 -146 -183 -224 -224 -262 -137 -594 -30 -722 232 -43 87 -55
139 -55 236 -1 148 51 275 155 378 82 83 193 138 313 155 40 6 151 -2 200 -15z"/>
<path d="M3590 2764 c-84 -16 -193 -50 -256 -78 -194 -90 -361 -250 -454 -436
-221 -441 -84 -963 325 -1235 230 -153 510 -199 780 -129 33 9 110 40 172 70
62 30 114 54 117 54 2 0 7 -11 10 -24 9 -36 53 -84 100 -108 92 -48 209 -18
271 70 l30 44 5 410 c3 226 3 597 0 823 l-5 412 -27 39 c-15 21 -44 50 -65 64
-31 21 -48 25 -114 25 -70 0 -81 -3 -120 -30 -25 -18 -53 -50 -67 -77 l-24
-47 -48 30 c-135 83 -273 120 -460 124 -80 2 -156 1 -170 -1z m290 -440 c174
-49 314 -190 365 -368 13 -44 16 -86 14 -170 -4 -106 -6 -115 -45 -196 -48
-100 -102 -163 -181 -216 -166 -110 -374 -122 -547 -32 -78 41 -183 146 -224
224 -124 237 -48 544 170 686 142 93 290 116 448 72z"/>
</g>
</svg>
