<?xml version="1.0" standalone="no"?>
<!DOCTYPE svg PUBLIC "-//W3C//DTD SVG 20010904//EN"
 "http://www.w3.org/TR/2001/REC-SVG-20010904/DTD/svg10.dtd">
<svg version="1.0" xmlns="http://www.w3.org/2000/svg"
 width="512.000000pt" height="512.000000pt" viewBox="0 0 512.000000 512.000000"
 preserveAspectRatio="xMidYMid meet">

<g transform="translate(0.000000,512.000000) scale(0.100000,-0.100000)"
fill="#000000" stroke="none">
<path d="M1425 4341 c-976 -486 -1288 -646 -1312 -672 -40 -43 -53 -77 -53
-139 0 -43 15 -79 110 -270 99 -196 115 -223 151 -247 59 -39 147 -44 209 -11
61 33 101 97 102 167 1 45 -7 69 -52 162 -30 59 -52 110 -49 113 2 2 203 103
446 225 l443 221 440 -880 c242 -484 440 -882 440 -885 0 -3 -46 -28 -103 -54
-68 -32 -113 -60 -134 -84 -113 -129 -23 -327 149 -327 58 0 67 4 595 261 242
117 263 130 289 169 39 59 45 148 12 204 -39 66 -89 99 -157 104 -55 4 -68 0
-169 -47 -61 -28 -113 -51 -116 -51 -6 0 -752 1487 -837 1668 l-48 102 439
220 c242 121 444 220 448 220 4 0 26 -37 47 -82 79 -163 129 -203 241 -196 76
5 125 38 162 109 40 77 30 120 -80 343 -129 260 -164 297 -280 295 -49 0 -138
-43 -1333 -638z"/>
<path d="M4227 2130 c-38 -5 -100 -18 -138 -30 -38 -11 -458 -212 -932 -446
-474 -235 -1166 -576 -1537 -759 -372 -184 -697 -339 -723 -346 -27 -6 -82
-10 -127 -7 -194 11 -348 163 -366 362 -8 87 -21 123 -61 167 -25 28 -51 44
-89 55 -49 14 -59 14 -108 0 -38 -11 -64 -27 -89 -55 -49 -54 -61 -98 -53
-195 26 -348 271 -635 611 -717 152 -36 360 -20 495 39 25 11 311 151 635 312
325 161 685 339 800 395 116 56 516 254 890 440 374 185 699 345 723 356 136
60 303 36 419 -60 80 -66 143 -197 143 -297 0 -116 86 -204 200 -204 87 0 163
54 190 136 16 49 7 175 -20 272 -49 178 -170 346 -323 451 -149 102 -359 153
-540 131z"/>
</g>
</svg>
