<?xml version="1.0" standalone="no"?>
<!DOCTYPE svg PUBLIC "-//W3C//DTD SVG 20010904//EN"
 "http://www.w3.org/TR/2001/REC-SVG-20010904/DTD/svg10.dtd">
<svg version="1.0" xmlns="http://www.w3.org/2000/svg"
 width="512.000000pt" height="512.000000pt" viewBox="0 0 512.000000 512.000000"
 preserveAspectRatio="xMidYMid meet">

<g transform="translate(0.000000,512.000000) scale(0.100000,-0.100000)"
fill="#000000" stroke="none">
<path d="M1615 4461 c-72 -32 -125 -113 -125 -191 0 -80 12 -95 288 -372 l267
-268 -813 0 c-566 0 -827 -3 -857 -11 -27 -7 -63 -28 -90 -51 -112 -98 -88
-275 46 -342 l53 -26 830 0 830 0 -265 -267 c-274 -277 -289 -296 -289 -374 0
-88 69 -179 154 -204 41 -13 61 -13 106 -4 l55 11 464 461 c311 311 469 475
482 502 23 49 24 123 4 173 -21 51 -903 934 -961 962 -51 25 -126 26 -179 1z"/>
<path d="M3330 2754 c-44 -19 -933 -904 -961 -956 -23 -45 -25 -124 -4 -176
19 -45 891 -924 945 -951 53 -28 96 -34 149 -21 60 14 118 61 142 114 23 51
24 136 3 179 -9 18 -131 148 -272 290 l-257 257 816 0 c927 0 888 -3 957 76
96 109 68 264 -59 328 l-53 26 -830 0 -831 0 257 258 c169 169 263 270 273
294 17 42 20 124 6 161 -16 40 -73 99 -116 118 -48 22 -117 24 -165 3z"/>
</g>
</svg>
