<?xml version="1.0" encoding="UTF-8"?>
<!DOCTYPE svg PUBLIC "-//W3C//DTD SVG 1.1//EN" "http://www.w3.org/Graphics/SVG/1.1/DTD/svg11.dtd">
<svg xmlns="http://www.w3.org/2000/svg" version="1.1" width="512px" height="512px" style="shape-rendering:geometricPrecision; text-rendering:geometricPrecision; image-rendering:optimizeQuality; fill-rule:evenodd; clip-rule:evenodd" xmlns:xlink="http://www.w3.org/1999/xlink">
<g><path style="opacity:0.99" fill="#000000" d="M 165.5,-0.5 C 233.167,-0.5 300.833,-0.5 368.5,-0.5C 405.124,41.9615 441.958,84.2949 479,126.5C 479.987,217.202 479.654,307.869 478,398.5C 464.586,434.97 438.419,451.303 399.5,447.5C 397.97,475.208 384.637,495.042 359.5,507C 354.746,508.642 350.079,510.142 345.5,511.5C 258.833,511.5 172.167,511.5 85.5,511.5C 62.683,506.201 46.183,492.868 36,471.5C 34.2595,466.946 32.9261,462.279 32,457.5C 31.3333,343.833 31.3333,230.167 32,116.5C 38.1121,90.3872 53.9454,73.2206 79.5,65C 90.1176,63.6557 100.784,63.1557 111.5,63.5C 113.03,35.7917 126.363,15.9583 151.5,4C 156.254,2.35832 160.921,0.858315 165.5,-0.5 Z M 175.5,31.5 C 228.833,31.5 282.167,31.5 335.5,31.5C 335.333,56.5022 335.5,81.5022 336,106.5C 342.833,134.667 360.333,152.167 388.5,159C 408.164,159.5 427.831,159.667 447.5,159.5C 447.667,234.167 447.5,308.834 447,383.5C 444.5,402 434,412.5 415.5,415C 335.5,415.667 255.5,415.667 175.5,415C 157,412.5 146.5,402 144,383.5C 143.333,276.833 143.333,170.167 144,63.5C 146.679,44.9888 157.179,34.3222 175.5,31.5 Z M 367.5,33.5 C 393.696,64.6883 420.03,95.855 446.5,127C 430.833,127.667 415.167,127.667 399.5,127C 392.786,125.955 387.286,122.788 383,117.5C 376.185,108.535 371.518,98.5347 369,87.5C 367.617,69.5342 367.117,51.5342 367.5,33.5 Z M 90.5,96.5 C 97.5,96.5 104.5,96.5 111.5,96.5C 111.333,195.501 111.5,294.501 112,393.5C 116.979,416.484 130.146,432.984 151.5,443C 156.054,444.741 160.721,446.074 165.5,447C 232.499,447.5 299.499,447.667 366.5,447.5C 364.447,466.054 354.114,476.554 335.5,479C 255.5,479.667 175.5,479.667 95.5,479C 77,476.5 66.5,466 64,447.5C 63.3333,340.833 63.3333,234.167 64,127.5C 65.9172,111.094 74.7506,100.76 90.5,96.5 Z"/></g>
<g><path style="opacity:0.964" fill="#000000" d="M 218.5,223.5 C 269.834,223.333 321.168,223.5 372.5,224C 382.08,228.027 385.58,235.193 383,245.5C 380.635,251.202 376.469,254.702 370.5,256C 320.5,256.667 270.5,256.667 220.5,256C 209.794,252.766 205.627,245.599 208,234.5C 209.658,229.01 213.158,225.343 218.5,223.5 Z"/></g>
<g><path style="opacity:0.964" fill="#000000" d="M 218.5,303.5 C 269.834,303.333 321.168,303.5 372.5,304C 382.223,307.948 385.723,315.114 383,325.5C 380.549,331.616 376.049,335.116 369.5,336C 320.167,336.667 270.833,336.667 221.5,336C 209.74,332.994 205.24,325.494 208,313.5C 210.106,308.557 213.606,305.224 218.5,303.5 Z"/></g>
</svg>
