<?xml version="1.0" standalone="no"?>
<!DOCTYPE svg PUBLIC "-//W3C//DTD SVG 20010904//EN"
 "http://www.w3.org/TR/2001/REC-SVG-20010904/DTD/svg10.dtd">
<svg version="1.0" xmlns="http://www.w3.org/2000/svg"
 width="512.000000pt" height="512.000000pt" viewBox="0 0 512.000000 512.000000"
 preserveAspectRatio="xMidYMid meet">

<g transform="translate(0.000000,512.000000) scale(0.100000,-0.100000)"
fill="#000000" stroke="none">
<path d="M1555 5106 c-83 -20 -146 -56 -211 -120 -136 -137 -171 -337 -87
-514 34 -73 131 -170 203 -204 90 -41 144 -48 405 -48 l245 0 0 -1660 0 -1660
-245 0 c-261 0 -316 -7 -405 -48 -72 -33 -169 -130 -203 -204 -84 -177 -49
-377 87 -513 66 -65 138 -105 224 -124 74 -15 1909 -16 1984 0 87 18 158 58
223 123 178 179 178 454 1 632 -66 66 -144 108 -227 124 -29 6 -161 10 -295
10 l-244 0 0 1660 0 1660 245 0 c261 0 316 7 405 48 72 34 168 130 203 205 83
178 50 376 -87 513 -66 66 -144 108 -227 124 -80 15 -1931 12 -1994 -4z"/>
</g>
</svg>
