<?xml version="1.0" standalone="no"?>
<!DOCTYPE svg PUBLIC "-//W3C//DTD SVG 20010904//EN"
 "http://www.w3.org/TR/2001/REC-SVG-20010904/DTD/svg10.dtd">
<svg version="1.0" xmlns="http://www.w3.org/2000/svg"
 width="512.000000pt" height="512.000000pt" viewBox="0 0 512.000000 512.000000"
 preserveAspectRatio="xMidYMid meet">

<g transform="translate(0.000000,512.000000) scale(0.100000,-0.100000)"
fill="#000000" stroke="none">
<path d="M1857 4616 c-55 -15 -144 -73 -174 -114 -11 -15 -31 -48 -44 -72
l-24 -45 0 -380 0 -380 28 -53 c36 -68 94 -124 165 -159 l57 -28 275 0 275 0
68 33 c46 23 81 50 114 88 l47 55 91 -3 90 -3 3 -991 2 -991 -57 -12 c-113
-22 -201 -93 -252 -201 l-26 -55 0 -275 0 -275 33 -67 c50 -102 135 -166 251
-188 75 -14 1089 -13 1167 1 119 22 223 107 264 216 20 54 21 72 18 332 l-3
276 -27 50 c-50 94 -142 164 -245 185 l-53 11 0 420 0 420 -25 24 c-31 32 -69
32 -100 0 l-25 -24 0 -471 0 -471 25 -24 c20 -21 34 -25 85 -25 95 0 167 -40
208 -115 25 -45 31 -440 8 -518 -19 -65 -74 -120 -135 -137 -28 -7 -220 -10
-598 -8 -544 3 -559 4 -598 24 -22 11 -53 40 -70 63 l-30 43 -3 246 c-3 240
-2 248 20 292 13 26 41 57 65 74 36 25 54 30 122 34 136 8 121 -134 121 1142
0 1091 0 1100 -20 1120 -19 19 -31 20 -212 18 l-192 -3 -40 -60 c-29 -42 -55
-67 -86 -83 -44 -22 -52 -23 -291 -20 l-246 3 -40 28 c-22 15 -50 46 -64 70
l-24 42 0 330 0 330 24 42 c14 24 42 55 64 70 l40 28 1456 3 c1014 2 1467 0
1493 -8 50 -14 97 -56 119 -105 17 -36 19 -71 19 -360 0 -290 -2 -324 -19
-360 -22 -48 -54 -79 -103 -100 -30 -12 -82 -15 -266 -15 -223 0 -229 1 -278
25 -34 17 -58 38 -74 66 -50 83 -38 79 -249 79 l-190 0 -20 -26 c-21 -26 -21
-36 -21 -494 0 -442 1 -469 19 -491 26 -32 86 -32 112 0 18 22 19 48 19 447
l0 424 93 0 93 0 30 -40 c35 -47 94 -92 155 -117 39 -16 76 -18 314 -18 l270
0 56 26 c79 37 133 90 171 167 l33 67 0 360 0 360 -33 67 c-38 77 -92 130
-171 167 l-56 26 -1475 2 c-1180 1 -1485 -1 -1523 -11z"/>
<path d="M1906 4375 c-56 -30 -55 -24 -56 -371 0 -312 1 -321 21 -343 11 -12
32 -26 46 -32 13 -5 116 -9 229 -9 226 0 251 5 279 60 8 16 15 50 15 75 l0 45
313 -2 312 -3 3 -1232 2 -1233 -120 0 c-217 0 -220 -5 -220 -302 0 -193 2
-216 20 -245 13 -21 31 -35 57 -42 51 -15 1054 -15 1105 -1 20 6 46 22 58 37
19 24 20 39 20 254 l0 229 -29 32 -29 33 -136 3 -136 4 0 1234 0 1234 313 -2
312 -3 6 -55 c12 -116 23 -120 294 -120 227 0 252 5 280 60 22 43 22 607 0
650 -33 64 67 60 -1502 60 -1256 0 -1431 -2 -1457 -15z m2824 -370 l0 -236
-147 3 -148 3 -5 59 c-4 48 -10 62 -33 82 l-28 24 -395 0 c-252 0 -402 -4
-415 -10 -51 -28 -49 32 -49 -1374 l0 -1306 29 -32 29 -33 139 -5 138 -5 0
-145 0 -145 -482 -3 -483 -2 0 149 0 149 141 4 c140 3 141 3 165 31 l24 28 0
1320 0 1321 -29 29 -29 29 -397 0 c-253 0 -403 -4 -416 -10 -28 -16 -49 -63
-49 -115 l0 -45 -150 0 -150 0 0 235 0 235 1370 0 1370 0 0 -235z"/>
<path d="M73 3033 c-12 -2 -34 -18 -48 -34 l-25 -31 0 -213 0 -213 26 -31 26
-31 169 0 c167 0 170 0 194 25 16 15 25 36 25 55 l0 30 190 0 190 0 0 -825 0
-825 -70 0 c-137 0 -150 -20 -150 -229 l0 -151 29 -32 29 -33 359 -3 c197 -2
373 0 392 3 18 4 44 18 57 32 23 25 24 31 24 185 0 90 -4 168 -10 179 -18 33
-64 49 -140 49 l-70 0 0 825 0 825 190 0 c185 0 190 -1 190 -21 0 -25 18 -60
39 -76 11 -9 67 -12 182 -13 l166 0 27 26 26 27 0 224 c0 223 0 224 -24 248
-13 13 -39 26 -57 30 -19 3 -211 5 -427 3 l-394 -3 -19 -24 c-25 -30 -24 -76
1 -101 19 -19 33 -20 395 -20 l375 0 0 -135 0 -135 -68 0 -68 0 -12 45 c-19
73 -27 75 -342 75 l-272 0 -29 -29 -29 -29 0 -917 0 -917 29 -29 c28 -27 34
-29 110 -29 l81 0 0 -75 0 -75 -295 0 -295 0 0 75 0 75 81 0 c76 0 82 2 110
29 l29 29 0 917 0 917 -29 29 -29 29 -275 0 -275 0 -31 -25 c-19 -17 -31 -37
-33 -58 l-3 -32 -72 -3 -73 -3 0 136 0 135 374 0 c348 0 375 1 397 18 30 25
30 75 0 105 -21 22 -24 22 -424 23 -221 1 -412 0 -424 -3z"/>
</g>
</svg>
