<?xml version="1.0" standalone="no"?>
<!DOCTYPE svg PUBLIC "-//W3C//DTD SVG 20010904//EN"
 "http://www.w3.org/TR/2001/REC-SVG-20010904/DTD/svg10.dtd">
<svg version="1.0" xmlns="http://www.w3.org/2000/svg"
 width="512.000000pt" height="512.000000pt" viewBox="0 0 512.000000 512.000000"
 preserveAspectRatio="xMidYMid meet">

<g transform="translate(0.000000,512.000000) scale(0.100000,-0.100000)"
fill="#000000" stroke="none">
<path d="M361 4578 c-66 -15 -126 -79 -141 -152 -17 -83 0 -148 54 -202 24
-25 57 -46 81 -53 27 -7 247 -11 698 -11 l657 0 0 -1738 0 -1739 23 -44 c15
-29 40 -54 71 -74 41 -25 58 -29 116 -29 58 0 75 4 116 29 31 20 56 45 71 74
l23 44 0 1739 0 1738 658 0 c450 0 670 4 697 11 61 17 120 82 134 148 23 107
-15 197 -104 245 l-40 21 -1535 2 c-973 0 -1551 -3 -1579 -9z"/>
<path d="M2906 3185 c-116 -41 -166 -185 -106 -305 21 -40 41 -60 90 -86 32
-17 66 -19 388 -22 l352 -3 0 -1043 0 -1043 23 -44 c15 -29 40 -54 71 -74 41
-25 58 -29 116 -29 58 0 75 4 116 29 31 20 56 45 71 74 l23 44 0 1043 0 1043
353 3 c321 3 355 5 387 22 49 26 69 46 90 86 45 90 31 191 -34 256 -24 25 -58
46 -81 53 -28 8 -308 11 -930 11 -731 -1 -897 -3 -929 -15z"/>
</g>
</svg>
