<?xml version="1.0" standalone="no"?>
<!DOCTYPE svg PUBLIC "-//W3C//DTD SVG 20010904//EN"
 "http://www.w3.org/TR/2001/REC-SVG-20010904/DTD/svg10.dtd">
<svg version="1.0" xmlns="http://www.w3.org/2000/svg"
 width="512.000000pt" height="512.000000pt" viewBox="0 0 512.000000 512.000000"
 preserveAspectRatio="xMidYMid meet">

<g transform="translate(0.000000,512.000000) scale(0.100000,-0.100000)"
fill="#000000" stroke="none">
<path d="M1265 4259 c-357 -47 -672 -304 -785 -640 -51 -150 -50 -128 -50
-1406 0 -1056 2 -1198 15 -1231 64 -152 273 -172 370 -34 l30 44 3 569 2 569
535 0 535 0 0 -553 0 -553 26 -53 c67 -134 244 -158 343 -45 28 32 43 61 51
97 8 37 10 384 8 1232 -4 1092 -5 1186 -22 1255 -87 365 -365 647 -718 730
-101 23 -249 32 -343 19z m244 -434 c35 -9 92 -30 125 -47 79 -42 183 -146
224 -225 57 -108 62 -154 62 -595 l0 -398 -536 0 -536 0 4 423 c5 455 4 449
62 568 105 212 359 329 595 274z"/>
<path d="M3620 4260 c-395 -47 -715 -332 -823 -735 -21 -79 -21 -90 -25 -1265
-2 -883 0 -1199 8 -1239 16 -74 84 -143 156 -160 98 -24 193 20 238 110 l26
53 0 553 0 553 535 0 535 0 0 -555 c0 -479 2 -561 15 -593 64 -152 273 -172
370 -34 l30 44 5 671 c3 370 3 929 0 1242 -6 555 -7 572 -29 650 -109 383
-426 656 -816 704 -99 12 -128 12 -225 1z m290 -452 c130 -48 239 -142 296
-257 58 -119 57 -113 62 -568 l4 -423 -536 0 -536 0 0 403 c0 323 3 415 15
466 45 188 205 348 398 397 77 20 217 11 297 -18z"/>
</g>
</svg>
